<svg xmlns="http://www.w3.org/2000/svg" viewBox="0 0 512 512">
  <!-- Background -->
  <rect width="512" height="512" fill="#000000" rx="80"/>

  <!-- Diamond shape -->
  <defs>
    <linearGradient id="diamondGradient" x1="0%" y1="0%" x2="100%" y2="100%">
      <stop offset="0%" style="stop-color:#4FC3F7;stop-opacity:1" />
      <stop offset="50%" style="stop-color:#29B6F6;stop-opacity:1" />
      <stop offset="100%" style="stop-color:#03A9F4;stop-opacity:1" />
    </linearGradient>

    <linearGradient id="highlight" x1="0%" y1="0%" x2="100%" y2="100%">
      <stop offset="0%" style="stop-color:#E1F5FE;stop-opacity:0.8" />
      <stop offset="100%" style="stop-color:#B3E5FC;stop-opacity:0.3" />
    </linearGradient>
  </defs>

  <!-- Main diamond -->
  <path d="M 256 80 L 390 200 L 256 420 L 122 200 Z" fill="url(#diamondGradient)" stroke="#01579B" stroke-width="4"/>

  <!-- Top facets -->
  <path d="M 256 80 L 320 200 L 256 160 Z" fill="#E1F5FE" opacity="0.7"/>
  <path d="M 256 80 L 192 200 L 256 160 Z" fill="#B3E5FC" opacity="0.6"/>

  <!-- Middle facets -->
  <path d="M 256 160 L 320 200 L 256 300 Z" fill="#4FC3F7" opacity="0.8"/>
  <path d="M 256 160 L 192 200 L 256 300 Z" fill="#29B6F6" opacity="0.7"/>

  <!-- Bottom facets -->
  <path d="M 256 300 L 320 200 L 390 200 L 256 420 Z" fill="#0288D1" opacity="0.9"/>
  <path d="M 256 300 L 192 200 L 122 200 L 256 420 Z" fill="#0277BD" opacity="0.85"/>

  <!-- Highlight -->
  <ellipse cx="220" cy="140" rx="30" ry="40" fill="white" opacity="0.4"/>
</svg>
